{
	"asset":{
		"generator":"Khronos glTF Blender I/O v4.4.56",
		"version":"2.0"
	},
	"scene":0,
	"scenes":[
		{
			"name":"Scene",
			"nodes":[
				0,
				1
			]
		}
	],
	"nodes":[
		{
			"mesh":0,
			"name":"Terrain",
			"rotation":[
				0,
				-7.351252861553803e-06,
				0,
				1
			],
			"translation":[
				15,
				0,
				-1.0967254638671875e-05
			]
		},
		{
			"camera":0,
			"name":"Camera",
			"rotation":[
				-0.2391173541545868,
				0.36964401602745056,
				0.09904570132493973,
				0.8923991322517395
			],
			"translation":[
				10,
				8.15999984741211,
				10
			]
		}
	],
	"cameras":[
		{
			"name":"Camera",
			"orthographic":{
				"xmag":1.399999976158142,
				"ymag":1.0499999821186066,
				"zfar":100,
				"znear":0.10000000149011612
			},
			"type":"orthographic"
		}
	],
	"animations":[
		{
			"channels":[
				{
					"sampler":0,
					"target":{
						"node":0,
						"path":"translation"
					}
				},
				{
					"sampler":1,
					"target":{
						"node":0,
						"path":"rotation"
					}
				},
				{
					"sampler":2,
					"target":{
						"node":0,
						"path":"scale"
					}
				}
			],
			"name":"TerrainAction",
			"samplers":[
				{
					"input":15,
					"interpolation":"LINEAR",
					"output":16
				},
				{
					"input":15,
					"interpolation":"LINEAR",
					"output":17
				},
				{
					"input":18,
					"interpolation":"STEP",
					"output":19
				}
			]
		}
	],
	"materials":[
		{
			"doubleSided":true,
			"emissiveFactor":[
				1,
				1,
				0
			],
			"name":"TerrainMed",
			"pbrMetallicRoughness":{
				"baseColorFactor":[
					0,
					0,
					0,
					1
				]
			}
		},
		{
			"doubleSided":true,
			"emissiveFactor":[
				1,
				0,
				1
			],
			"name":"TerrainLight",
			"pbrMetallicRoughness":{
				"baseColorFactor":[
					0,
					0,
					0,
					1
				]
			}
		},
		{
			"doubleSided":true,
			"emissiveFactor":[
				0,
				1,
				1
			],
			"name":"TerrainDark",
			"pbrMetallicRoughness":{
				"baseColorFactor":[
					0,
					0,
					0,
					1
				]
			}
		}
	],
	"meshes":[
		{
			"name":"Plane.003",
			"primitives":[
				{
					"attributes":{
						"POSITION":0,
						"NORMAL":1,
						"TEXCOORD_0":2,
						"TANGENT":3
					},
					"indices":4,
					"material":0
				},
				{
					"attributes":{
						"POSITION":5,
						"NORMAL":6,
						"TEXCOORD_0":7,
						"TANGENT":8
					},
					"indices":9,
					"material":1
				},
				{
					"attributes":{
						"POSITION":10,
						"NORMAL":11,
						"TEXCOORD_0":12,
						"TANGENT":13
					},
					"indices":14,
					"material":2
				}
			]
		}
	],
	"accessors":[
		{
			"bufferView":0,
			"componentType":5126,
			"count":16,
			"max":[
				15.999237060546875,
				0.40666666626930237,
				1.000777244567871
			],
			"min":[
				-16.00076675415039,
				0,
				-0.9994542598724365
			],
			"type":"VEC3"
		},
		{
			"bufferView":1,
			"componentType":5126,
			"count":16,
			"type":"VEC3"
		},
		{
			"bufferView":2,
			"componentType":5126,
			"count":16,
			"type":"VEC2"
		},
		{
			"bufferView":3,
			"componentType":5126,
			"count":16,
			"type":"VEC4"
		},
		{
			"bufferView":4,
			"componentType":5123,
			"count":18,
			"type":"SCALAR"
		},
		{
			"bufferView":5,
			"componentType":5126,
			"count":17,
			"max":[
				30.999237060546875,
				0.40666666626930237,
				1.0007765293121338
			],
			"min":[
				-11.00076675415039,
				-0.40199998021125793,
				-1.0010370016098022
			],
			"type":"VEC3"
		},
		{
			"bufferView":6,
			"componentType":5126,
			"count":17,
			"type":"VEC3"
		},
		{
			"bufferView":7,
			"componentType":5126,
			"count":17,
			"type":"VEC2"
		},
		{
			"bufferView":8,
			"componentType":5126,
			"count":17,
			"type":"VEC4"
		},
		{
			"bufferView":9,
			"componentType":5123,
			"count":21,
			"type":"SCALAR"
		},
		{
			"bufferView":10,
			"componentType":5126,
			"count":17,
			"max":[
				30.999237060546875,
				0.40666666626930237,
				1.0007033348083496
			],
			"min":[
				-6.000766754150391,
				-0.40199998021125793,
				-1.0010370016098022
			],
			"type":"VEC3"
		},
		{
			"bufferView":11,
			"componentType":5126,
			"count":17,
			"type":"VEC3"
		},
		{
			"bufferView":12,
			"componentType":5126,
			"count":17,
			"type":"VEC2"
		},
		{
			"bufferView":13,
			"componentType":5126,
			"count":17,
			"type":"VEC4"
		},
		{
			"bufferView":14,
			"componentType":5123,
			"count":21,
			"type":"SCALAR"
		},
		{
			"bufferView":15,
			"componentType":5126,
			"count":22,
			"max":[
				0.9166666666666666
			],
			"min":[
				0.041666666666666664
			],
			"type":"SCALAR"
		},
		{
			"bufferView":16,
			"componentType":5126,
			"count":22,
			"type":"VEC3"
		},
		{
			"bufferView":17,
			"componentType":5126,
			"count":22,
			"type":"VEC4"
		},
		{
			"bufferView":18,
			"componentType":5126,
			"count":2,
			"max":[
				0.9166666666666666
			],
			"min":[
				0.041666666666666664
			],
			"type":"SCALAR"
		},
		{
			"bufferView":19,
			"componentType":5126,
			"count":2,
			"type":"VEC3"
		}
	],
	"bufferViews":[
		{
			"buffer":0,
			"byteLength":192,
			"byteOffset":0,
			"target":34962
		},
		{
			"buffer":0,
			"byteLength":192,
			"byteOffset":192,
			"target":34962
		},
		{
			"buffer":0,
			"byteLength":128,
			"byteOffset":384,
			"target":34962
		},
		{
			"buffer":0,
			"byteLength":256,
			"byteOffset":512,
			"target":34962
		},
		{
			"buffer":0,
			"byteLength":36,
			"byteOffset":768,
			"target":34963
		},
		{
			"buffer":0,
			"byteLength":204,
			"byteOffset":804,
			"target":34962
		},
		{
			"buffer":0,
			"byteLength":204,
			"byteOffset":1008,
			"target":34962
		},
		{
			"buffer":0,
			"byteLength":136,
			"byteOffset":1212,
			"target":34962
		},
		{
			"buffer":0,
			"byteLength":272,
			"byteOffset":1348,
			"target":34962
		},
		{
			"buffer":0,
			"byteLength":42,
			"byteOffset":1620,
			"target":34963
		},
		{
			"buffer":0,
			"byteLength":204,
			"byteOffset":1664,
			"target":34962
		},
		{
			"buffer":0,
			"byteLength":204,
			"byteOffset":1868,
			"target":34962
		},
		{
			"buffer":0,
			"byteLength":136,
			"byteOffset":2072,
			"target":34962
		},
		{
			"buffer":0,
			"byteLength":272,
			"byteOffset":2208,
			"target":34962
		},
		{
			"buffer":0,
			"byteLength":42,
			"byteOffset":2480,
			"target":34963
		},
		{
			"buffer":0,
			"byteLength":88,
			"byteOffset":2524
		},
		{
			"buffer":0,
			"byteLength":264,
			"byteOffset":2612
		},
		{
			"buffer":0,
			"byteLength":352,
			"byteOffset":2876
		},
		{
			"buffer":0,
			"byteLength":8,
			"byteOffset":3228
		},
		{
			"buffer":0,
			"byteLength":24,
			"byteOffset":3236
		}
	],
	"buffers":[
		{
			"byteLength":3260,
			"uri":"terrain_tool-901b138b1e37a49215653655135ac07e.bin"
		}
	]
}
